<mxfile host="app.diagrams.net" modified="2020-12-25T07:44:48.913Z" agent="5.0 (Macintosh; Intel Mac OS X 10_15_7) AppleWebKit/537.36 (KHTML, like Gecko) Chrome/87.0.4280.88 Safari/537.36" etag="AO0n2N_J0hlFH4XVLHvp" version="14.0.5" type="github">
  <diagram id="ja0M6DlM9jikA0aGTMc_" name="Page-1">
    <mxGraphModel dx="890" dy="611" grid="1" gridSize="10" guides="1" tooltips="1" connect="1" arrows="1" fold="1" page="1" pageScale="1" pageWidth="827" pageHeight="1169" math="0" shadow="0">
      <root>
        <mxCell id="0" />
        <mxCell id="1" parent="0" />
        <mxCell id="teUQ7k3h2MQdNr8YWL-4-5" style="edgeStyle=orthogonalEdgeStyle;rounded=0;orthogonalLoop=1;jettySize=auto;html=1;entryX=0.5;entryY=0;entryDx=0;entryDy=0;" edge="1" parent="1" source="teUQ7k3h2MQdNr8YWL-4-1" target="teUQ7k3h2MQdNr8YWL-4-4">
          <mxGeometry relative="1" as="geometry" />
        </mxCell>
        <mxCell id="teUQ7k3h2MQdNr8YWL-4-1" value="webpack(config)" style="shape=parallelogram;perimeter=parallelogramPerimeter;whiteSpace=wrap;html=1;fixedSize=1;" vertex="1" parent="1">
          <mxGeometry x="130" y="110" width="170" height="40" as="geometry" />
        </mxCell>
        <mxCell id="teUQ7k3h2MQdNr8YWL-4-3" value="&lt;ul&gt;&lt;li&gt;&lt;span&gt;验证config的合法性&lt;/span&gt;&lt;/li&gt;&lt;li&gt;&lt;span&gt;如果config是数组则创建多个编译编译实例&lt;/span&gt;&lt;/li&gt;&lt;li&gt;&lt;span&gt;用户配置与默认配置融合&lt;/span&gt;&lt;/li&gt;&lt;li&gt;&lt;span&gt;使用新配置创建compiler对象&lt;/span&gt;&lt;/li&gt;&lt;li&gt;注册NodeEnvironmentPlugin插件，挂载文件系统到compiler对象&lt;/li&gt;&lt;li&gt;执行environment、afterEnvironment钩子&lt;/li&gt;&lt;li&gt;根据配置注册一堆默认插件&lt;/li&gt;&lt;/ul&gt;" style="shape=note;size=20;whiteSpace=wrap;html=1;fillColor=#fff2cc;strokeColor=#d6b656;align=left;" vertex="1" parent="1">
          <mxGeometry x="370" y="65" width="350" height="130" as="geometry" />
        </mxCell>
        <mxCell id="teUQ7k3h2MQdNr8YWL-4-10" style="edgeStyle=orthogonalEdgeStyle;rounded=0;orthogonalLoop=1;jettySize=auto;html=1;entryX=0.5;entryY=0;entryDx=0;entryDy=0;" edge="1" parent="1" source="teUQ7k3h2MQdNr8YWL-4-4" target="teUQ7k3h2MQdNr8YWL-4-7">
          <mxGeometry relative="1" as="geometry" />
        </mxCell>
        <mxCell id="teUQ7k3h2MQdNr8YWL-4-4" value="compiler.compile()" style="shape=parallelogram;perimeter=parallelogramPerimeter;whiteSpace=wrap;html=1;fixedSize=1;" vertex="1" parent="1">
          <mxGeometry x="130" y="280" width="170" height="40" as="geometry" />
        </mxCell>
        <mxCell id="teUQ7k3h2MQdNr8YWL-4-6" value="&lt;ul&gt;&lt;li&gt;创建compilation对象&lt;/li&gt;&lt;li&gt;调用SingleEntryPlugin开始编译入口文件&lt;/li&gt;&lt;/ul&gt;" style="shape=note;size=20;whiteSpace=wrap;html=1;fillColor=#fff2cc;strokeColor=#d6b656;align=left;" vertex="1" parent="1">
          <mxGeometry x="375" y="267.5" width="340" height="65" as="geometry" />
        </mxCell>
        <mxCell id="teUQ7k3h2MQdNr8YWL-4-16" style="edgeStyle=orthogonalEdgeStyle;rounded=0;orthogonalLoop=1;jettySize=auto;html=1;entryX=0.5;entryY=0;entryDx=0;entryDy=0;" edge="1" parent="1" source="teUQ7k3h2MQdNr8YWL-4-7" target="teUQ7k3h2MQdNr8YWL-4-15">
          <mxGeometry relative="1" as="geometry" />
        </mxCell>
        <mxCell id="teUQ7k3h2MQdNr8YWL-4-7" value="resolve" style="shape=parallelogram;perimeter=parallelogramPerimeter;whiteSpace=wrap;html=1;fixedSize=1;" vertex="1" parent="1">
          <mxGeometry x="130" y="410" width="170" height="40" as="geometry" />
        </mxCell>
        <mxCell id="teUQ7k3h2MQdNr8YWL-4-8" value="&lt;ul&gt;&lt;li&gt;调用resolve方法解析出当前文件的绝对路径&lt;/li&gt;&lt;li&gt;解析出inline和config中与当前文件匹配的loader，解析出loader的绝对路径，并runLoader做准备&lt;/li&gt;&lt;/ul&gt;" style="shape=note;size=20;whiteSpace=wrap;html=1;fillColor=#fff2cc;strokeColor=#d6b656;align=left;" vertex="1" parent="1">
          <mxGeometry x="375" y="397.5" width="340" height="65" as="geometry" />
        </mxCell>
        <mxCell id="teUQ7k3h2MQdNr8YWL-4-11" value="runLoaders" style="shape=parallelogram;perimeter=parallelogramPerimeter;whiteSpace=wrap;html=1;fixedSize=1;" vertex="1" parent="1">
          <mxGeometry x="129" y="642.5" width="170" height="40" as="geometry" />
        </mxCell>
        <mxCell id="teUQ7k3h2MQdNr8YWL-4-12" value="&lt;ul&gt;&lt;li&gt;针对当前文件逐个执行loader&lt;/li&gt;&lt;/ul&gt;" style="shape=note;size=20;whiteSpace=wrap;html=1;fillColor=#fff2cc;strokeColor=#d6b656;align=left;" vertex="1" parent="1">
          <mxGeometry x="369" y="630" width="340" height="65" as="geometry" />
        </mxCell>
        <mxCell id="teUQ7k3h2MQdNr8YWL-4-13" value="parse" style="shape=parallelogram;perimeter=parallelogramPerimeter;whiteSpace=wrap;html=1;fixedSize=1;" vertex="1" parent="1">
          <mxGeometry x="119" y="772.5" width="170" height="40" as="geometry" />
        </mxCell>
        <mxCell id="teUQ7k3h2MQdNr8YWL-4-14" value="&lt;ul&gt;&lt;li&gt;&lt;br&gt;&lt;/li&gt;&lt;/ul&gt;" style="shape=note;size=20;whiteSpace=wrap;html=1;fillColor=#fff2cc;strokeColor=#d6b656;align=left;" vertex="1" parent="1">
          <mxGeometry x="369" y="760" width="340" height="65" as="geometry" />
        </mxCell>
        <mxCell id="teUQ7k3h2MQdNr8YWL-4-17" style="edgeStyle=orthogonalEdgeStyle;rounded=0;orthogonalLoop=1;jettySize=auto;html=1;" edge="1" parent="1" source="teUQ7k3h2MQdNr8YWL-4-15">
          <mxGeometry relative="1" as="geometry">
            <mxPoint x="215" y="640" as="targetPoint" />
          </mxGeometry>
        </mxCell>
        <mxCell id="teUQ7k3h2MQdNr8YWL-4-15" value="创建入口文件的module" style="shape=parallelogram;perimeter=parallelogramPerimeter;whiteSpace=wrap;html=1;fixedSize=1;" vertex="1" parent="1">
          <mxGeometry x="130" y="520" width="170" height="40" as="geometry" />
        </mxCell>
      </root>
    </mxGraphModel>
  </diagram>
</mxfile>
